<svg xmlns="http://www.w3.org/2000/svg" width="1600" height="900" viewBox="0 0 1600 900" role="img" aria-label="Minh họa dashboard giáo viên">
  <defs>
    <linearGradient id="bg3" x1="0" y1="0" x2="1" y2="1">
      <stop offset="0%" stop-color="#f8fbff"/>
      <stop offset="100%" stop-color="#eef2ff"/>
    </linearGradient>
  </defs>
  <rect width="1600" height="900" fill="url(#bg3)"/>
  <rect x="70" y="90" width="1460" height="720" rx="34" fill="#ffffff" stroke="#e2e8f0" stroke-width="5"/>
  <rect x="70" y="90" width="270" height="720" rx="34" fill="#f8fafc"/>
  <rect x="115" y="160" width="180" height="24" rx="12" fill="#2563eb"/>
  <rect x="115" y="232" width="160" height="48" rx="16" fill="#eaf2ff"/>
  <rect x="115" y="302" width="160" height="48" rx="16" fill="#ffffff"/>
  <rect x="115" y="372" width="160" height="48" rx="16" fill="#ffffff"/>
  <rect x="115" y="442" width="160" height="48" rx="16" fill="#ffffff"/>
  <g transform="translate(380,150)">
    <rect width="1110" height="90" rx="24" fill="#ffffff"/>
    <rect x="0" y="0" width="1110" height="90" rx="24" fill="#ffffff"/>
    <rect x="20" y="18" width="240" height="18" rx="9" fill="#334155"/>
    <rect x="20" y="50" width="340" height="12" rx="6" fill="#94a3b8"/>
  </g>
  <g transform="translate(395,290)">
    <rect width="200" height="140" rx="24" fill="#eef6ff"/><circle cx="56" cy="52" r="26" fill="#bfdbfe"/>
    <rect x="100" y="42" width="70" height="18" rx="9" fill="#2563eb"/><rect x="100" y="72" width="92" height="12" rx="6" fill="#94a3b8"/>
    <rect x="100" y="98" width="42" height="12" rx="6" fill="#22c55e"/>
    <rect x="225" width="200" height="140" rx="24" fill="#f0fdf4"/><circle cx="281" cy="52" r="26" fill="#bbf7d0"/>
    <rect x="325" y="42" width="70" height="18" rx="9" fill="#16a34a"/><rect x="325" y="72" width="92" height="12" rx="6" fill="#94a3b8"/>
    <rect x="325" y="98" width="42" height="12" rx="6" fill="#22c55e"/>
    <rect x="450" width="200" height="140" rx="24" fill="#fff7ed"/><circle cx="506" cy="52" r="26" fill="#fde68a"/>
    <rect x="550" y="42" width="70" height="18" rx="9" fill="#f59e0b"/><rect x="550" y="72" width="92" height="12" rx="6" fill="#94a3b8"/>
    <rect x="550" y="98" width="42" height="12" rx="6" fill="#fb923c"/>
    <rect x="675" width="200" height="140" rx="24" fill="#f5f3ff"/><circle cx="731" cy="52" r="26" fill="#ddd6fe"/>
    <rect x="775" y="42" width="70" height="18" rx="9" fill="#7c3aed"/><rect x="775" y="72" width="92" height="12" rx="6" fill="#94a3b8"/>
    <rect x="775" y="98" width="42" height="12" rx="6" fill="#8b5cf6"/>
  </g>
  <g transform="translate(395,470)">
    <rect width="660" height="270" rx="28" fill="#ffffff" stroke="#e2e8f0" stroke-width="4"/>
    <rect x="30" y="30" width="180" height="18" rx="9" fill="#1f2937"/>
    <g transform="translate(34,86)">
      <circle cx="24" cy="24" r="20" fill="#bfdbfe"/><rect x="58" y="10" width="160" height="12" rx="6" fill="#334155"/><rect x="58" y="34" width="240" height="12" rx="6" fill="#94a3b8"/>
      <rect x="350" y="4" width="92" height="32" rx="12" fill="#22c55e"/><rect x="454" y="4" width="120" height="32" rx="12" fill="#f59e0b"/><rect x="586" y="4" width="40" height="32" rx="12" fill="#e2e8f0"/>
      <line x1="0" y1="64" x2="626" y2="64" stroke="#e2e8f0" stroke-width="2"/>
      <circle cx="24" cy="110" r="20" fill="#bbf7d0"/><rect x="58" y="96" width="160" height="12" rx="6" fill="#334155"/><rect x="58" y="120" width="220" height="12" rx="6" fill="#94a3b8"/>
      <rect x="350" y="90" width="92" height="32" rx="12" fill="#22c55e"/><rect x="454" y="90" width="120" height="32" rx="12" fill="#f59e0b"/><rect x="586" y="90" width="40" height="32" rx="12" fill="#e2e8f0"/>
    </g>
  </g>
  <g transform="translate(1090,470)">
    <rect width="380" height="270" rx="28" fill="#ffffff" stroke="#e2e8f0" stroke-width="4"/>
    <rect x="30" y="30" width="160" height="18" rx="9" fill="#1f2937"/>
    <circle cx="190" cy="148" r="86" fill="none" stroke="#e5e7eb" stroke-width="28"/>
    <path d="M190 62 A86 86 0 1 1 110 186" fill="none" stroke="#22c55e" stroke-width="28" stroke-linecap="round"/>
    <rect x="278" y="106" width="20" height="20" rx="6" fill="#22c55e"/>
    <rect x="278" y="142" width="20" height="20" rx="6" fill="#f59e0b"/>
    <rect x="278" y="178" width="20" height="20" rx="6" fill="#ef4444"/>
    <rect x="310" y="110" width="40" height="12" rx="6" fill="#94a3b8"/>
    <rect x="310" y="146" width="52" height="12" rx="6" fill="#94a3b8"/>
    <rect x="310" y="182" width="32" height="12" rx="6" fill="#94a3b8"/>
  </g>
</svg>
